<svg id="Componente_49_1" data-name="Componente 49 – 1" xmlns="http://www.w3.org/2000/svg" xmlns:xlink="http://www.w3.org/1999/xlink" width="1707" height="1079" viewBox="0 0 1707 1079">
  <defs>
    <clipPath id="clip-path">
      <rect id="Rettangolo_3813" data-name="Rettangolo 3813" width="1707" height="1079" transform="translate(14640)" fill="#fff" stroke="#707070" stroke-width="1"/>
    </clipPath>
    <linearGradient id="linear-gradient" x1="0.75" y1="1.091" x2="0.405" y2="0.064" gradientUnits="objectBoundingBox">
      <stop offset="0" stop-color="#f90"/>
      <stop offset="1" stop-color="#d349de"/>
    </linearGradient>
  </defs>
  <g id="Gruppo_di_maschere_155" data-name="Gruppo di maschere 155" transform="translate(-14640)" clip-path="url(#clip-path)">
    <g id="Raggruppa_20854" data-name="Raggruppa 20854">
      <circle id="Ellisse_9591" data-name="Ellisse 9591" cx="100.5" cy="100.5" r="100.5" transform="translate(14700 983)" fill="#de49b5"/>
      <g id="Raggruppa_20850" data-name="Raggruppa 20850" transform="translate(14575.231 12.699)">
        <path id="Tracciato_27168" data-name="Tracciato 27168" d="M732.882,717.987c-17.9,9.089-25.49-46.5-26.19-46.889-15.419-8.564,1.849,37.241-6.406,32.655-11.27-6.261,1.24-30.439-5.276-37.679-9.005-10-5.637,32.242-10.174,30.561-8.209-3.04.4-32.611-3.015-40.19-.421-.934-.511-.837-1.507-.837-10.6,0,1.249,33.675-9.421,29.724-9.9-3.667.979-32.823-5.276-39.772-11.06-12.288-.281,38.246-8.667,32.655-10.374-6.915-.971-30.8-9.8-40.609-6.462-7.179-2.549,31.99-4.145,31.4-12.778-4.733-3.144-34.1-12.812-37.679-6.976-2.584-2.37,24.756-1.507,27.631.492,1.638-6.831-4.036-7.536-7.955-.436-2.424-2.218-34.353-5.275-32.655-5.482,3.045,2.311,23.426-3.392,25.538-8.168,3.025-8.665-33.072-16.2-37.26-7.454-4.14,3.589,26.684,2.638,27.212-1.332.74-3.709-1.146-4.9-1.675-15.92-7.075-8.036-41.446-19.217-41.446-6.5,0,1.45,29.128,1.13,29.3-1.145.636-2.4-2-3.014-2.512-10.7-8.915-9.455-17.854-11.3-32.236-.334-2.6-1.19-15.665-6.783-12.559-7.526,4.18,2.2,21.486,0,26.375-.756,1.679-2.713-2.3-3.768-3.768-7.13-9.9-5.844-13.631-7.16-26.793-.156-1.559-.985-11.594-3.768-10.047-4.608,2.559-2.261,18.268-2.261,23.026,0,2.795-7.207-7.222-7.914-8.792-1.016-2.259-2.979-30.162-7.536-27.63-5.343,2.967.645,16.447-2.261,19.676-3.675,4.083-9.567-31.561-10.928-33.073-1.21-1.344-1.8,20.161-1.884,20.1-8.787-6.509,2.2-25.569-9.044-31.818-2.418-1.343-2.069,24.707-7.159,13.4-1.088-2.417,1.069-26.34-3.392-23.863-2.392,1.33-2.592,7.117-6.406,7.117-4.346,0,1.4-12.265-1.506-15.49-1.316-1.462-5.586,4.68-7.537,2.512-2.809-3.121.339-16.182-2.261-20.514-1.3-2.175-8.666,10.835-8.666,3.768,0-19.826-.819-.508-8.291-10.885-.471-.655-4.289-6.957-4.522-6.7-1.886,2.1.358,18.4,1.507,19.676,1.484,1.649,5.679.866,6.783,2.094,4.18,4.644-2.153,5.262-1.13,7.536,1.28,2.846,10.508,6.232,12.812,8.792,2.431,2.7-8.52,1.418-4.9,5.442.278.31,19.285,5.615,13.566,8.792-1.559.865-11.958,1.591-10.928,5.024,1.243,4.141,13.632,3.793,16.957,5.024,16.538,6.125-4.561,4.937-1.507,11.722,3.612,8.026,12.959,1.923,17.711,5.443,10.6,7.85-8.38,2.193-10.551,4.605-1.979,2.2,9.2,6.7,10.551,6.7,12.174,0,21.345,11.3,19.218,11.3-2.043,0-24.48-9.745-20.349-2.094,7.589,14.052,25.524,8.261,35.422,19.258.952,1.058-17.036,1.08-16.58,2.094,1.248,2.773,4.085,5.531,6.783,6.279,5.438,1.51,11.9-1.51,17.334,0,2.7.75,9.995,5.025,3.392,5.025-35.828,0,30.791,7.235,21.479,17.583-2.176,2.418-16.158-5.544-18.088-1.256-4.632,10.293,18.228,9.629,21.856,9.629,1.577,0,15.08,6.9,12.435,8.373-.038.022-25.966,1.548-5.275,9.21,8.814,3.265,19.946-10.942,26.377,3.349.252.561-19.784,2.721-17.334,5.443,6.291,6.99,28.143-5.7,32.784,4.605,1.382,3.07-19.724,3.624-15.45,8.373,6.765,7.516,22.125-2.313,29.769,3.349,19.325,14.314-13.169,1.3-8.666,11.3,4.878,10.839,24.4-3.866,28.638.837,8.615,9.572-22.965,9.012-19.595,10.885,14.47,8.037,31.084-3.247,45.973,5.024,8.987,4.992-30.267-.134-26.755,3.768,5.4,6,18.985,5.442,26,5.442,1.279,0,12.812-1.286,12.812-1.255,0,1.424-32.683,6.544-29.393,8.373,14.346,7.968,31.7-3.128,45.973.837,7.558,2.1,23.593,13.978,24.117,13.4C733.735,727.716,732.926,718.573,732.882,717.987Z" transform="translate(-10.779 0)" fill="#fed063"/>
        <path id="Tracciato_27169" data-name="Tracciato 27169" d="M703.369,771.312c-6.643.187-35.732-17.182-35.732-22.663,0-2.678,3.4,3.843,4.74,6.071.53.883,11.475,13.056,10.209,13.759-3.048,1.691-24.918-18.882-27.346-16.188-3.985,4.423,21.2,18.87,7.292,15.783-3.6-.8-18.957-17.4-20.782-15.379-2.44,2.707,14.093,18.669,8.385,17.4-3.229-.717-21.116-17.437-22.97-15.378-4.172,4.63,15.516,13.759,6.563,13.759-6.1,0-10.216-.68-15.314-4.451-.834-.617-6.5-7.358-7.293-6.475-1.765,1.959,5.783,11.485,4.011,12.14-9.672,3.579-21.541-15.346-23.7-12.95-3.413,3.788,11.955,13.788,10.938,14.165-11.816,4.371-27.463-19.7-30.627-16.188-4.776,5.3,13.127,13.61,13.127,17,0,4.469-25.937-8.168-26.981-8.5-9.018-2.859,1.411,5.437,4.01,6.88.711.395,9.48,2.9,9.48,4.048,0,6.779-32.894-7.2-33.18-6.88-1.748,1.94,11.844,9.322,11.3,10.522-2.6,5.776-26.087-11.516-28.075-9.308-3.1,3.443,16.407,9.876,16.407,12.546,0,2.175-33.08-6.99-35.732-4.048-1.6,1.777,18.371,6.724,16.773,8.5-7.27,8.07-27.88-6.287-28.8-5.261-3.487,3.872,15.752,9.713,11.3,9.713-1.667,0-16.97-3.019-17.866-2.023-1.586,1.761,8.386,6.435,8.386,7.284,0,1.732-20.909-1.884-21.512-1.214-1.639,1.818,7.419,5.384,6.927,6.474-3.142,6.974-14.672-4.047-18.231-4.047-12.063,0,6.734,9.118,5.834,10.117-2.6,2.886-9.292-2.833-11.668-2.833-9.284,0,10.7,9.638-1.823,8.094-1.659-.205-6.327-2.467-8.021-1.215-2.941,2.176,1.992,6.194.365,8.9-1.362,2.266-7.729,5.021-6.563,8.9,2.058,6.854,10.869-7.025,11.667-7.69,1.464-1.218,3.565,4.294,5.469,3.238,2.484-1.378,2.04-11.255,3.282-8.5.611,1.358-2.25,5.193-1.094,6.475,2.189,2.429,9.549-12.546,11.668-12.546,3.625,0-4.773,6.255-1.458,8.094,3.571,1.981,9.836-13.365,12.4-10.523,1.83,2.032-4.194,12.263-.365,9.713,1.987-1.323,12.738-17.426,13.49-16.592,1.941,2.155-6.095,10.233-4.74,11.737,2.847,3.16,13.677-17,18.231-17,3.083,0-7.637,14.995-7.292,15.378,4.477,4.969,14.842-23.186,19.689-17.806,2.624,2.913-10.214,11.326-7.292,14.569,6.436,7.145,16.27-26.381,25.888-21.044,2.016,1.118-14.872,18.4-12.4,20.234,9.761,7.224,13.8-12.064,17.136-17,1-1.475,10.574-7.267,10.574-6.88,0,3.276-12.261,20.994-8.022,19.425,8.813-3.261,9.184-18.25,16.407-22.258,9.658-5.359,8.468,5.017,5.1,11.736a112.039,112.039,0,0,1-5.834,9.713c4.9-1.361,23.656-31.616,30.263-24.282.248.276-18.423,23.391-13.49,21.045.021-.01,32.105-30,28.8-21.449-.693,1.794-10.97,18.8-9.116,19.83,3.374,1.872,16.514-24.782,23.335-22.258,4.1,1.519-16.911,23.575-10.209,21.449,8.372-2.655,19.059-28.273,28.439-23.068,3.59,1.992-14.66,21-13.126,21.854,3.563,1.977,23.227-23.714,24.429-21.045,1.787,3.969-9.534,21.824-9.48,21.854,9.259,5.138,12.322-24.525,22.241-19.021,4.387,2.435-15.681,26.19-6.563,21.854,5.16-2.455,12.649-23.13,15.678-21.449,5.218,2.9-7.3,20.633-6.563,21.449,7.222,8.015,11.408-29.08,20.783-23.878,2.564,1.423-11.882,18.141-9.844,22.663,2.19,4.862,12.8-10.615,13.855-12.95C693.243,774.365,705.657,784.007,703.369,771.312Z" transform="translate(27.406 -25.883)" fill="#fed063"/>
      </g>
      <g id="Raggruppa_20851" data-name="Raggruppa 20851" transform="matrix(0.53, -0.848, 0.848, 0.53, 14413.243, 348.355)">
        <path id="Tracciato_27168-2" data-name="Tracciato 27168" d="M742.767,726.612c-18.522,9.4-26.374-48.112-27.1-48.515-15.954-8.861,1.914,38.533-6.628,33.787-11.661-6.478,1.283-31.494-5.458-38.985-9.318-10.352-5.833,33.36-10.527,31.621-8.494-3.145.41-33.741-3.119-41.583-.435-.967-.529-.866-1.559-.866-10.963,0,1.293,34.843-9.748,30.755-10.244-3.794,1.013-33.961-5.458-41.152-11.444-12.714-.291,39.572-8.968,33.787-10.733-7.155-1-31.872-10.137-42.017-6.686-7.428-2.638,33.1-4.289,32.488-13.221-4.9-3.253-35.281-13.256-38.985-7.218-2.673-2.452,25.614-1.56,28.589.509,1.7-7.068-4.176-7.8-8.23-.451-2.508-2.294-35.545-5.458-33.787-5.672,3.151,2.392,24.238-3.509,26.423-8.451,3.13-8.965-34.219-16.766-38.552-7.712-4.284,3.714,27.61,2.73,28.156-1.378.766-3.838-1.185-5.069-1.733-16.472-7.32-8.315-42.883-19.884-42.883-6.73,0,1.5,30.138,1.169,30.321-1.184.658-2.48-2.066-3.119-2.6-11.072-9.224-9.783-18.473-11.7-33.354-.346-2.685-1.232-16.208-7.018-12.995-7.787,4.325,2.276,22.231,0,27.29-.782,1.737-2.807-2.381-3.9-3.9-7.377-10.244-6.046-14.1-7.408-27.722-.161-1.614-1.019-12-3.9-10.4-4.767,2.648-2.339,18.9-2.339,23.824,0,2.892-7.457-7.472-8.188-9.1-1.052-2.337-3.083-31.208-7.8-28.589-5.529,3.07.667,17.018-2.339,20.358-3.8,4.225-9.9-32.656-11.307-34.22-1.252-1.391-1.858,20.86-1.949,20.793-9.092-6.734,2.281-26.456-9.358-32.921-2.5-1.389-2.141,25.563-7.407,13.861-1.126-2.5,1.106-27.254-3.509-24.691-2.475,1.376-2.682,7.364-6.629,7.364-4.5,0,1.444-12.691-1.559-16.027-1.362-1.513-5.78,4.842-7.8,2.6-2.906-3.229.351-16.743-2.339-21.225-1.35-2.251-8.967,11.211-8.967,3.9,0-20.514-.847-.526-8.578-11.262-.488-.678-4.438-7.2-4.679-6.931-1.952,2.168.371,19.037,1.56,20.358,1.536,1.706,5.876.9,7.018,2.166,4.325,4.8-2.228,5.445-1.169,7.8,1.325,2.944,10.873,6.448,13.256,9.1,2.515,2.794-8.816,1.467-5.068,5.631.288.321,19.954,5.81,14.036,9.1-1.613.9-12.373,1.646-11.307,5.2,1.286,4.285,14.1,3.924,17.545,5.2,17.112,6.337-4.719,5.108-1.56,12.129,3.737,8.3,13.408,1.99,18.325,5.632,10.967,8.122-8.671,2.269-10.917,4.765-2.048,2.274,9.519,6.931,10.917,6.931,12.6,0,22.085,11.7,19.884,11.7-2.114,0-25.329-10.082-21.055-2.166,7.853,14.54,26.409,8.548,36.65,19.925.985,1.094-17.627,1.118-17.155,2.166,1.291,2.869,4.227,5.723,7.018,6.5,5.627,1.563,12.308-1.562,17.935,0,2.795.776,10.342,5.2,3.51,5.2-37.07,0,31.859,7.486,22.224,18.193-2.252,2.5-16.718-5.737-18.715-1.3-4.793,10.65,18.86,9.963,22.614,9.963,1.631,0,15.6,7.143,12.867,8.663-.04.023-26.866,1.6-5.458,9.53,9.12,3.378,20.638-11.321,27.292,3.465.261.58-20.47,2.815-17.935,5.632,6.509,7.233,29.119-5.9,33.92,4.765,1.43,3.176-20.408,3.75-15.986,8.663,7,7.776,22.892-2.393,30.8,3.465,20,14.81-13.626,1.343-8.967,11.7,5.047,11.215,25.251-4,29.631.866,8.914,9.9-23.761,9.325-20.274,11.262,14.972,8.316,32.162-3.359,47.567,5.2,9.3,5.165-31.317-.139-27.682,3.9,5.585,6.205,19.643,5.631,26.9,5.631,1.323,0,13.256-1.331,13.256-1.3,0,1.474-33.817,6.771-30.412,8.663,14.844,8.245,32.8-3.236,47.567.866,7.821,2.172,24.411,14.463,24.954,13.861C743.65,736.677,742.813,727.218,742.767,726.612Z" transform="translate(-10.779 0)" fill="#fed063"/>
        <path id="Tracciato_27169-2" data-name="Tracciato 27169" d="M671.531,768.526c-5.849.165-31.46-15.128-31.46-19.953,0-2.358,2.995,3.383,4.174,5.345.466.777,10.1,11.5,8.988,12.114-2.683,1.489-21.939-16.625-24.077-14.252-3.509,3.894,18.664,16.614,6.42,13.9-3.169-.7-16.691-15.323-18.3-13.54-2.148,2.383,12.408,16.437,7.383,15.321-2.843-.631-18.591-15.352-20.224-13.539-3.673,4.076,13.661,12.114,5.778,12.114-5.368,0-8.995-.6-13.483-3.919-.734-.543-5.721-6.478-6.421-5.7-1.554,1.725,5.092,10.112,3.532,10.689-8.516,3.151-18.965-13.511-20.866-11.4-3.005,3.335,10.526,12.14,9.63,12.471-10.4,3.848-24.179-17.345-26.966-14.252-4.205,4.667,11.557,11.983,11.557,14.965,0,3.935-22.836-7.191-23.756-7.483-7.94-2.517,1.242,4.787,3.531,6.057.626.347,8.346,2.557,8.346,3.564,0,5.969-28.961-6.338-29.213-6.057-1.539,1.708,10.428,8.207,9.952,9.264-2.291,5.085-22.968-10.139-24.718-8.2-2.731,3.031,14.446,8.7,14.446,11.046,0,1.915-29.125-6.154-31.46-3.564-1.41,1.564,16.175,5.92,14.767,7.483-6.4,7.1-24.547-5.536-25.361-4.632-3.07,3.409,13.869,8.551,9.952,8.551-1.467,0-14.941-2.658-15.73-1.781-1.4,1.55,7.384,5.666,7.384,6.413,0,1.525-18.409-1.659-18.94-1.069-1.443,1.6,6.532,4.74,6.1,5.7-2.766,6.14-12.918-3.563-16.051-3.563-10.621,0,5.929,8.027,5.136,8.908-2.288,2.541-8.181-2.494-10.273-2.494-8.175,0,9.419,8.486-1.605,7.127-1.461-.181-5.57-2.172-7.062-1.069-2.589,1.916,1.754,5.453.321,7.839-1.2,2-6.805,4.421-5.778,7.839,1.812,6.034,9.57-6.185,10.272-6.771,1.289-1.073,3.139,3.781,4.815,2.851,2.187-1.213,1.8-9.909,2.89-7.482.538,1.2-1.981,4.572-.964,5.7,1.927,2.139,8.408-11.046,10.273-11.046,3.191,0-4.2,5.507-1.284,7.126,3.144,1.744,8.66-11.767,10.915-9.265,1.611,1.789-3.692,10.8-.321,8.551,1.749-1.165,11.215-15.343,11.877-14.609,1.709,1.9-5.366,9.009-4.174,10.334,2.506,2.782,12.042-14.965,16.051-14.965,2.714,0-6.724,13.2-6.42,13.539,3.942,4.375,13.068-20.414,17.335-15.677,2.311,2.565-8.993,9.972-6.42,12.827,5.667,6.29,14.325-23.227,22.793-18.528,1.775.985-13.093,16.2-10.915,17.815,8.594,6.36,12.153-10.622,15.088-14.965.878-1.3,9.31-6.4,9.31-6.057,0,2.884-10.8,18.484-7.063,17.1,7.759-2.871,8.086-16.068,14.446-19.6,8.5-4.719,7.456,4.417,4.494,10.333a98.62,98.62,0,0,1-5.136,8.551c4.318-1.2,20.828-27.836,26.645-21.379.219.243-16.22,20.594-11.877,18.529.018-.009,28.267-26.412,25.361-18.885-.61,1.58-9.658,16.554-8.026,17.459,2.97,1.649,14.54-21.819,20.546-19.6,3.612,1.337-14.889,20.756-8.988,18.885,7.371-2.338,16.781-24.892,25.039-20.31,3.16,1.754-12.907,18.491-11.557,19.241,3.137,1.74,20.45-20.879,21.508-18.529,1.574,3.494-8.394,19.215-8.346,19.241,8.152,4.524,10.849-21.593,19.582-16.747,3.863,2.144-13.806,23.059-5.778,19.241,4.543-2.161,11.136-20.365,13.8-18.885,4.594,2.549-6.425,18.166-5.778,18.885,6.358,7.057,10.044-25.6,18.3-21.023,2.257,1.253-10.461,15.972-8.667,19.953,1.928,4.281,11.273-9.346,12.2-11.4C662.615,771.214,673.545,779.7,671.531,768.526Z" transform="translate(66.357 -30.033)" fill="#fed063"/>
      </g>
      <g id="Raggruppa_5551" data-name="Raggruppa 5551" transform="translate(3550 18)">
        <circle id="Ellisse_6407" data-name="Ellisse 6407" cx="138.5" cy="138.5" r="138.5" transform="translate(11822 76)" fill="#de49b5"/>
        <circle id="Ellisse_6408" data-name="Ellisse 6408" cx="374" cy="374" r="374" transform="translate(11332 -620)" fill="#de49b5"/>
        <circle id="Ellisse_6429" data-name="Ellisse 6429" cx="198" cy="198" r="198" transform="translate(11537 777)" fill="#de49b5"/>
      </g>
      <g id="Raggruppa_5552" data-name="Raggruppa 5552" transform="translate(3563.4 -17)">
        <g id="Raggruppa_5550" data-name="Raggruppa 5550" transform="translate(11 -3.167)">
          <path id="Tracciato_27172" data-name="Tracciato 27172" d="M321.513,465.6c-34.671-12.3-80.091-3.75-103.013,19.38,18.74,14.076,43.839,23.26,70.117,25.647s53.554-2.035,76.2-12.35" transform="translate(10945.109 315.139) rotate(-77)" fill="#f90"/>
          <path id="Tracciato_5155" data-name="Tracciato 5155" d="M97.515,1418.147q-3.273-50.947-6.545-101.888c25.756,15.528,56.777-8.244,77.319-30.206q78.724-84.153,157.449-168.311c70.222,45.356,168.369,42.377,235.711-7.156L551.4,952.84c-.878-13.765-1.379-28.857,6.958-39.846,13.119-17.291,40.44-15.214,57.48-28.665,18.134-14.312,19.2-41.79,12.8-63.985s-18.565-42.785-21.666-65.678c-5.335-39.317,17.04-77.255,43.878-106.478s59.133-53.775,81.246-86.721,31.987-78.745,9.919-111.72c-11.915-17.8-31.126-29.113-49.679-39.817q-45.283-26.137-90.572-52.268c-23.074-13.317-47.963-28.787-56.23-54.112-10.53-32.248,8.162-74.166-15.976-98.008-12.584-12.433-32.086-13.963-49.772-13.678s-36.554,1.373-51.773-7.639-22.765-32.9-9.361-44.437c10.216-8.8,25.593-5.725,38.875-3.392C632.4,167.08,787.531-20.174,963.719,1.789c80.822,10.077,153.155,63.973,234.6,64,35.768.012,70.8-10.525,106.548-11.95s75.632,9.064,94.273,39.6c12.543,20.549,13.032,45.984,13.148,70.059q2.251,454.858,4.5,909.716c.419,84.912.82,170.155-10.618,254.287-7.208,53-23.812,111.906-71.106,136.888-31.137,16.447-68.371,14.015-103.564,12.747-336.267-12.142-676.5,119.7-1003.82,41.7-61.71-14.7-132.531-50.406-135.341-113.78" transform="translate(11172.955 -232.158)" fill="#f90"/>
          <path id="Tracciato_5157" data-name="Tracciato 5157" d="M320.616,467.376c-34.369-16.184-79.394-4.936-102.116,25.508a118.527,118.527,0,0,0,145.047,17.5" transform="matrix(0.899, -0.438, 0.438, 0.899, 10964.453, -203.077)" fill="#f90"/>
          <path id="Tracciato_5159" data-name="Tracciato 5159" d="M611.67,578.181c12.34,36.082,51.915,60.693,89.735,55.8A118.992,118.992,0,0,0,612.687,517.17" transform="translate(10892.19 -454.027)" fill="#f90"/>
          <path id="Tracciato_5160" data-name="Tracciato 5160" d="M183.456,2116.033c-25.325-38.375-20.49-93.929,11.083-127.353a207.6,207.6,0,0,0,26.71,87.443" transform="translate(11099.056 -1080.854)" fill="#f90"/>
          <path id="Tracciato_5161" data-name="Tracciato 5161" d="M269.346,1786.12Q176,1658.48,82.67,1530.84c53.288,46.466,129,67.822,168.358,126.553,25.693,38.336,31.264,86.271,36.116,132.165-22.228-94.5-44.611-191.314-33.493-287.758a1054.412,1054.412,0,0,1,35.4,282.124c11.642-71.055,23.6-143.17,54.275-208.308A1125.815,1125.815,0,0,0,305.549,1772" transform="translate(11175.991 -754.379)" fill="#de49b5"/>
          <path id="Tracciato_5180" data-name="Tracciato 5180" d="M93.465,2255.371q-43.145-13.4-86.285-26.8a132.6,132.6,0,0,1,94.872,7.272" transform="translate(11165.997 -1178.856)" fill="#f90"/>
          <path id="Tracciato_5181" data-name="Tracciato 5181" d="M127.871,2151.8c-44.19-8.594-84.134-37.041-106.713-75.985S-6.259,1988.074,8.241,1945.45a852.824,852.824,0,0,1,122.426,211.222" transform="translate(11168.999 -1088.381)" fill="#f90"/>
          <path id="Tracciato_27163" data-name="Tracciato 27163" d="M62.569,0C22.784,13.372-4.534,56.782.625,98.438A132.11,132.11,0,0,0,81.883,72.216,132.09,132.09,0,0,0,129.708,1.485" transform="translate(11682.846 573.513) rotate(65)" fill="#f90"/>
          <path id="Tracciato_27164" data-name="Tracciato 27164" d="M64.137,4.64C42.551-5.525,14.271,1.54,0,20.661a75.1,75.1,0,0,0,43.656,21.2A75.11,75.11,0,0,0,91.1,31.653" transform="translate(11695.566 539.446) rotate(65)" fill="#f90"/>
          <path id="Tracciato_27165" data-name="Tracciato 27165" d="M.09,28C-1.239,47.087,12.259,66.177,30.7,71.291A60.227,60.227,0,0,0,33.867,32.5,60.236,60.236,0,0,0,12.456,0" transform="translate(11729.533 694.364) rotate(65)" fill="#f90"/>
          <path id="Tracciato_27166" data-name="Tracciato 27166" d="M0,35.169c7.113,20.8,29.925,34.985,51.726,32.162A69.205,69.205,0,0,0,37.764,24.848,69.187,69.187,0,0,0,.586,0" transform="translate(11746.719 709.674) rotate(65)" fill="#f90"/>
          <path id="Tracciato_27170" data-name="Tracciato 27170" d="M200.431,1681.158Q141.547,1600.638,82.67,1520.12c33.616,29.312,81.374,42.784,106.206,79.833,16.208,24.183,19.722,54.422,22.783,83.373-14.022-59.615-28.142-120.687-21.128-181.527a665.156,665.156,0,0,1,22.333,177.972c7.344-44.824,14.889-90.316,34.238-131.407a710.2,710.2,0,0,0-23.833,123.883" transform="translate(10838.994 1583.842) rotate(-150)" fill="#de49b5"/>
          <path id="Tracciato_27171" data-name="Tracciato 27171" d="M382.409,820.265c4.973-74.737-53.257-147.554-59.126-217.983-1.107-13.283,11.7-77.3,11.046-78.617-7.365-14.731-43.885,4.731-46.781-9.746-5.048-25.238,42.858-69.545,22.091-90.312-21.323-21.323-52.51,16.716-63.023,32.487-.812,1.217-1.967-25.946.649-32.487,3.621-9.053,33.317-45.949,24.04-55.227-21.67-21.668-57.638,40.053-61.075,38.334-9.928-4.964,15.76-56.842,11.046-66.272-8.445-16.89-34.571,8.447-37.685,8.447-1.556,0-2.724-30.594-4.548-33.786-5.633-9.859-19.882-23.194-33.785-16.243-21.692,10.846,16.541,51.768,9.1,61.075C141.5,376,118.264,361.59,114.072,365.782c-6.66,6.66,53.277,29.086,53.277,44.181,0,33.585-54.559,26.662-44.182,39.632,18.457,23.072,70.381-.878,83.815,25.989,15.117,30.234-80.1,2.948-66.922,24.04,12.279,19.646,64.733,6.908,84.464,26.639,23.427,23.427.381,46.511,9.746,55.876,5.95,5.95,15.984,8.818,22.741,13.645,60.119,42.942,34.108,49.05,64.972,104.606,21.48,38.664,36.919,52.165,48.729,99.408,3.17,12.676-2,61.725,15.594,61.725C387.089,861.523,384.812,823.069,382.409,820.265Z" transform="translate(11484.058 -35.764)" fill="#f90"/>
          <path id="Tracciato_27173" data-name="Tracciato 27173" d="M115.2,556.8c-2.016-37.112,21.588-73.27,23.966-108.243.449-6.6-4.743-38.386-4.477-39.038,2.985-7.315,17.789,2.349,18.962-4.84,2.046-12.533-17.372-34.534-8.955-44.846,8.643-10.588,21.285,8.3,25.546,16.132.329.6.8-12.884-.263-16.132-1.468-4.5-13.5-22.817-9.745-27.424,8.784-10.76,23.363,19.889,24.756,19.035,4.024-2.465-6.388-28.226-4.477-32.908,3.423-8.387,14.013,4.194,15.275,4.194.631,0,1.1-15.192,1.843-16.777,2.283-4.9,8.059-11.518,13.695-8.066,8.793,5.385-6.7,25.706-3.687,30.328,5.21,7.977,14.629.822,16.329,2.9,2.7,3.307-21.6,14.443-21.6,21.939,0,16.677,22.115,13.239,17.909,19.68-7.482,11.457-28.529-.436-33.974,12.905-6.128,15.013,32.47,1.464,27.127,11.938-4.977,9.755-26.239,3.43-34.237,13.228-9.5,11.633-.154,23.1-3.951,27.746-2.412,2.954-6.479,4.379-9.218,6.776-24.369,21.323-13.825,24.356-26.336,51.944-8.707,19.2-14.965,25.9-19.752,49.362-1.285,6.295.81,30.651-6.321,30.651C113.3,577.288,114.225,558.193,115.2,556.8Z" transform="translate(10982.012 805.624) rotate(-45)" fill="#f90"/>
          <path id="Tracciato_27174" data-name="Tracciato 27174" d="M165.317,1627.677q-41.326-56.51-82.647-113.02c23.592,20.572,57.11,30.027,74.537,56.029,11.375,16.972,13.842,38.195,15.99,58.513-9.841-41.839-19.751-84.7-14.828-127.4A466.822,466.822,0,0,1,174.043,1626.7c5.154-31.458,10.449-63.386,24.029-92.225a498.438,498.438,0,0,0-16.727,86.944" transform="translate(9946.77 727.38) rotate(-109)" fill="#de49b5"/>
        </g>
        <path id="Tracciato_5179" data-name="Tracciato 5179" d="M643.511,2020.652a394.181,394.181,0,0,1,5.422-95.832c5.509,32.964,7.2,66.481,6.853,99.9" transform="translate(10900.229 -1054.147)" fill="#f90"/>
      </g>
      <path id="Tracciato_5331" data-name="Tracciato 5331" d="M109.581,1392.835c35.76-80.884,125.542-133.958,213.847-129,41.125,2.309,81.932,16.06,122.745,10.495,64.14-8.751,111.679-61.932,153.169-111.626,17.262-20.672,35.53-44.305,33.6-71.167-2.326-32.3-32.3-54.541-48.769-82.415-35.23-59.641-5.135-135.077,25.183-197.362Q687.4,651.415,765.444,491.07c7.114-14.617,14.134-32.491,5.489-46.26-8.333-13.275-26.567-15.183-42.238-15.7l-328.865-10.8c-48.952-1.608-103.334-5.542-136.909-41.2-37.368-39.688-32.1-107.156,1.437-150.136s88.275-64.547,142.262-72.115c94.3-13.221,189.259,10.4,283.582,23.457,187.763,25.99,1017.845,21.349,1017.845,21.349s-2.164,589.479-30.18,900.953c-10.194,113.352,45.294,243.081,9.688,351.18-341.232-51.4-1217.613,49.557-1562.661,44.516C124.887,1496.316,60.129,1504.691,109.581,1392.835Z" transform="translate(14696.953 -332.62)" fill="url(#linear-gradient)"/>
    </g>
  </g>
</svg>
