<svg width="2.1495mm" height="4.6267mm" version="1.1" viewBox="0 0 2.1495 4.6267" xmlns="http://www.w3.org/2000/svg">
<g transform="translate(-50.163 -113.5)">
<path d="m50.637 115.83v2.2368a0.058208 0.058208 0 0 0 0.05821 0.0582h0.83053a0.058208 0.058208 0 0 0 0.05821-0.0582v-2.2733h0.60219a0.058208 0.058208 0 0 0 0.05794-0.0529l0.05794-0.685a0.058208 0.058208 0 0 0-0.05821-0.0632h-0.66014v-0.48604a0.20638 0.20638 0 0 1 0.20638-0.20637h0.46408a0.058208 0.058208 0 0 0 0.05821-0.0582v-0.68527a0.058208 0.058208 0 0 0-0.05821-0.0582h-0.78422a0.83317 0.83317 0 0 0-0.83344 0.83344v0.66146h-0.4154a0.058208 0.058208 0 0 0-0.05821 0.0582v0.68501a0.058208 0.058208 0 0 0 0.05821 0.0582h0.4154z" fill="#fff" fill-rule="evenodd" stroke-width=".26458" data-name="Tracciato 10"></path>
</g>
</svg>