<svg width="4.8265mm" height="4.8257mm" version="1.1" viewBox="0 0 4.8265 4.8257" xmlns="http://www.w3.org/2000/svg">
<g transform="translate(-44.456 -114.67)">
<path d="m48.139 115.56a0.28363 0.28363 0 1 0 0.2839 0.28389 0.2839 0.2839 0 0 0-0.2839-0.28389zm-1.2613 0.3638a1.1906 1.1906 0 1 0 1.1919 1.192 1.1933 1.1933 0 0 0-1.1922-1.192zm0 1.9555a0.76359 0.76359 0 1 1 0.76359-0.76358 0.76438 0.76438 0 0 1-0.76385 0.76358zm2.4051-1.7542a1.4552 1.4552 0 0 0-1.4539-1.4536h-1.919a1.4552 1.4552 0 0 0-1.4536 1.4536v1.9188a1.4552 1.4552 0 0 0 1.4536 1.4534h1.9188a1.4552 1.4552 0 0 0 1.4539-1.4536zm-0.45535 1.9188a0.99854 0.99854 0 0 1-0.99854 0.99828h-1.919a0.99827 0.99827 0 0 1-0.99827-0.99828v-1.9188a0.99827 0.99827 0 0 1 0.99827-0.99828h1.9188a0.99854 0.99854 0 0 1 0.99854 0.99828z" fill="#fff" stroke-width=".26458" data-name="Tracciato 11"></path>
</g>
</svg>