<svg width="4.0701mm" height="3.887mm" version="1.1" viewBox="0 0 4.0701 3.887" xmlns="http://www.w3.org/2000/svg">
<g transform="translate(-49.227 -112.74)">
<g transform="matrix(.26458 0 0 .26458 49.227 112.74)" data-name="Raggruppa 79">
<g data-name="Raggruppa 78">
<g data-name="Raggruppa 77">
<circle cx="1.763" cy="1.763" r="1.763" fill="#fff" data-name="Ellisse 16"></circle>
<g transform="translate(.215 4.553)" data-name="Raggruppa 9">
<path transform="translate(-387.13 -289.07)" d="m402.29 293.53v5.437a0.243 0.243 0 0 1-0.243 0.243h-2.807a0.243 0.243 0 0 1-0.244-0.243v-5.057c0-1.331-0.475-2.239-1.668-2.239a1.8 1.8 0 0 0-1.689 1.2 2.245 2.245 0 0 0-0.109 0.8v5.289a0.243 0.243 0 0 1-0.244 0.243h-2.806a0.242 0.242 0 0 1-0.243-0.243c6e-3 -1.347 0.035-7.881 6e-3 -9.416a0.242 0.242 0 0 1 0.243-0.246h2.8a0.243 0.243 0 0 1 0.243 0.244v1.16c-6e-3 0.011-0.016 0.022-0.022 0.033h0.022v-0.033a3.271 3.271 0 0 1 2.968-1.637c2.167 0 3.791 1.416 3.791 4.458zm-14.924 5.68h2.806a0.243 0.243 0 0 0 0.243-0.243v-9.419a0.243 0.243 0 0 0-0.243-0.244h-2.806a0.243 0.243 0 0 0-0.243 0.244v9.419a0.243 0.243 0 0 0 0.242 0.243z" fill="#fff" data-name="Tracciato 13"></path>
</g>
</g>
</g>
</g>
</g>
</svg>