<svg id="logo_Alias" data-name="logo Alias" xmlns="http://www.w3.org/2000/svg" width="27.186" height="32.113" viewBox="0 0 27.186 32.113">
<path id="Tracciato_3" data-name="Tracciato 3" d="M135.224,340.949a.5.5,0,0,0-.141.349v4.441h0l-4.39,4.5a.5.5,0,0,0-.141.349v4.441l-4.39,4.5a.5.5,0,0,0-.141.349v4.237a.5.5,0,0,0,.141.349l2.125,2.179,1.924,1.974a.474.474,0,0,0,.681,0l1.924-1.974,2.266-2.324,2.266,2.324,1.924,1.974a.474.474,0,0,0,.681,0l1.925-1.974,2.266-2.324,2.266,2.324,1.924,1.974a.474.474,0,0,0,.681,0l1.924-1.974,2.125-2.179a.5.5,0,0,0,.141-.349v-4.237a.5.5,0,0,0-.141-.349l-4.39-4.5V350.59a.5.5,0,0,0-.141-.349l-4.39-4.5V341.3a.5.5,0,0,0-.141-.349l-4.049-4.152a.473.473,0,0,0-.681,0Z" transform="translate(-126.021 -336.652)" fill="#f90"></path>
</svg>